<mxfile host="app.diagrams.net" modified="2024-05-06T12:32:11.773Z" agent="Mozilla/5.0 (Windows NT 10.0; Win64; x64) AppleWebKit/537.36 (KHTML, like Gecko) Chrome/124.0.0.0 Safari/537.36" etag="hkMARFcG_gxLhWsa13CJ" version="24.3.1" type="github">
  <diagram name="Page-1" id="1Q1MUkZzWCJOnIkLyNTM">
    <mxGraphModel dx="2501" dy="772" grid="1" gridSize="10" guides="1" tooltips="1" connect="1" arrows="1" fold="1" page="1" pageScale="1" pageWidth="827" pageHeight="1169" math="0" shadow="0">
      <root>
        <mxCell id="0" />
        <mxCell id="1" parent="0" />
        <mxCell id="8zgzl7MIhLuuyy7sdj-F-80" value="" style="group" vertex="1" connectable="0" parent="1">
          <mxGeometry x="694" y="150" width="90" height="40" as="geometry" />
        </mxCell>
        <mxCell id="8zgzl7MIhLuuyy7sdj-F-81" value="&lt;span style=&quot;text-wrap: nowrap;&quot;&gt;&lt;font color=&quot;#ff0080&quot; style=&quot;font-size: 12px;&quot;&gt;&lt;b style=&quot;&quot;&gt;Consultant_Id&lt;/b&gt;&lt;/font&gt;&lt;/span&gt;" style="rounded=0;whiteSpace=wrap;html=1;" vertex="1" parent="8zgzl7MIhLuuyy7sdj-F-80">
          <mxGeometry width="90" height="40" as="geometry" />
        </mxCell>
        <mxCell id="8zgzl7MIhLuuyy7sdj-F-82" value="" style="endArrow=none;dashed=1;html=1;dashPattern=1 3;strokeWidth=2;rounded=0;" edge="1" parent="8zgzl7MIhLuuyy7sdj-F-80">
          <mxGeometry width="50" height="50" relative="1" as="geometry">
            <mxPoint y="31" as="sourcePoint" />
            <mxPoint x="90" y="31" as="targetPoint" />
          </mxGeometry>
        </mxCell>
        <mxCell id="8zgzl7MIhLuuyy7sdj-F-1" value="" style="group" vertex="1" connectable="0" parent="1">
          <mxGeometry x="40" y="70" width="450" height="40" as="geometry" />
        </mxCell>
        <mxCell id="8zgzl7MIhLuuyy7sdj-F-2" value="&lt;u&gt;&lt;b&gt;Id&lt;/b&gt;&lt;/u&gt;" style="rounded=0;whiteSpace=wrap;html=1;" vertex="1" parent="8zgzl7MIhLuuyy7sdj-F-1">
          <mxGeometry width="90" height="40" as="geometry" />
        </mxCell>
        <mxCell id="8zgzl7MIhLuuyy7sdj-F-3" value="Name" style="rounded=0;whiteSpace=wrap;html=1;" vertex="1" parent="8zgzl7MIhLuuyy7sdj-F-1">
          <mxGeometry x="90" width="90" height="40" as="geometry" />
        </mxCell>
        <mxCell id="8zgzl7MIhLuuyy7sdj-F-4" value="DOB" style="rounded=0;whiteSpace=wrap;html=1;" vertex="1" parent="8zgzl7MIhLuuyy7sdj-F-1">
          <mxGeometry x="180" width="90" height="40" as="geometry" />
        </mxCell>
        <mxCell id="8zgzl7MIhLuuyy7sdj-F-40" value="" style="group" vertex="1" connectable="0" parent="8zgzl7MIhLuuyy7sdj-F-1">
          <mxGeometry x="270" width="90" height="40" as="geometry" />
        </mxCell>
        <mxCell id="8zgzl7MIhLuuyy7sdj-F-41" value="&lt;span style=&quot;text-wrap: nowrap;&quot;&gt;&lt;font color=&quot;#ad5700&quot; style=&quot;font-size: 12px;&quot;&gt;&lt;b style=&quot;&quot;&gt;Consultant_Id&lt;/b&gt;&lt;/font&gt;&lt;/span&gt;" style="rounded=0;whiteSpace=wrap;html=1;" vertex="1" parent="8zgzl7MIhLuuyy7sdj-F-40">
          <mxGeometry width="90" height="40" as="geometry" />
        </mxCell>
        <mxCell id="8zgzl7MIhLuuyy7sdj-F-42" value="" style="endArrow=none;dashed=1;html=1;dashPattern=1 3;strokeWidth=2;rounded=0;" edge="1" parent="8zgzl7MIhLuuyy7sdj-F-40">
          <mxGeometry width="50" height="50" relative="1" as="geometry">
            <mxPoint y="31" as="sourcePoint" />
            <mxPoint x="90" y="31" as="targetPoint" />
          </mxGeometry>
        </mxCell>
        <mxCell id="8zgzl7MIhLuuyy7sdj-F-44" value="" style="group" vertex="1" connectable="0" parent="8zgzl7MIhLuuyy7sdj-F-1">
          <mxGeometry x="360" width="90" height="40" as="geometry" />
        </mxCell>
        <mxCell id="8zgzl7MIhLuuyy7sdj-F-45" value="&lt;span style=&quot;text-wrap: nowrap;&quot;&gt;&lt;font color=&quot;#990000&quot; style=&quot;font-size: 12px;&quot;&gt;&lt;b style=&quot;&quot;&gt;Ward_Id&lt;/b&gt;&lt;/font&gt;&lt;/span&gt;" style="rounded=0;whiteSpace=wrap;html=1;" vertex="1" parent="8zgzl7MIhLuuyy7sdj-F-44">
          <mxGeometry width="90" height="40" as="geometry" />
        </mxCell>
        <mxCell id="8zgzl7MIhLuuyy7sdj-F-46" value="" style="endArrow=none;dashed=1;html=1;dashPattern=1 3;strokeWidth=2;rounded=0;" edge="1" parent="8zgzl7MIhLuuyy7sdj-F-44">
          <mxGeometry width="50" height="50" relative="1" as="geometry">
            <mxPoint y="31" as="sourcePoint" />
            <mxPoint x="90" y="31" as="targetPoint" />
          </mxGeometry>
        </mxCell>
        <mxCell id="8zgzl7MIhLuuyy7sdj-F-7" value="&lt;b&gt;&lt;font style=&quot;font-size: 14px;&quot;&gt;Patient&lt;/font&gt;&lt;/b&gt;" style="text;html=1;align=center;verticalAlign=middle;resizable=0;points=[];autosize=1;strokeColor=none;fillColor=none;" vertex="1" parent="1">
          <mxGeometry x="35" y="40" width="70" height="30" as="geometry" />
        </mxCell>
        <mxCell id="8zgzl7MIhLuuyy7sdj-F-8" value="&lt;u&gt;&lt;b&gt;Id&lt;/b&gt;&lt;/u&gt;" style="rounded=0;whiteSpace=wrap;html=1;" vertex="1" parent="1">
          <mxGeometry x="40" y="180" width="90" height="40" as="geometry" />
        </mxCell>
        <mxCell id="8zgzl7MIhLuuyy7sdj-F-9" value="Name" style="rounded=0;whiteSpace=wrap;html=1;" vertex="1" parent="1">
          <mxGeometry x="130" y="180" width="90" height="40" as="geometry" />
        </mxCell>
        <mxCell id="8zgzl7MIhLuuyy7sdj-F-11" value="&lt;b&gt;&lt;font style=&quot;font-size: 14px;&quot;&gt;Consultant&lt;/font&gt;&lt;/b&gt;" style="text;html=1;align=center;verticalAlign=middle;resizable=0;points=[];autosize=1;strokeColor=none;fillColor=none;" vertex="1" parent="1">
          <mxGeometry x="20" y="150" width="100" height="30" as="geometry" />
        </mxCell>
        <mxCell id="8zgzl7MIhLuuyy7sdj-F-12" value="&lt;u&gt;&lt;b&gt;Number&lt;/b&gt;&lt;/u&gt;" style="rounded=0;whiteSpace=wrap;html=1;" vertex="1" parent="1">
          <mxGeometry x="40" y="300" width="90" height="40" as="geometry" />
        </mxCell>
        <mxCell id="8zgzl7MIhLuuyy7sdj-F-13" value="Name" style="rounded=0;whiteSpace=wrap;html=1;" vertex="1" parent="1">
          <mxGeometry x="130" y="300" width="90" height="40" as="geometry" />
        </mxCell>
        <mxCell id="8zgzl7MIhLuuyy7sdj-F-14" value="&lt;b&gt;&lt;font style=&quot;font-size: 14px;&quot;&gt;Nurse&lt;/font&gt;&lt;/b&gt;" style="text;html=1;align=center;verticalAlign=middle;resizable=0;points=[];autosize=1;strokeColor=none;fillColor=none;" vertex="1" parent="1">
          <mxGeometry x="40" y="270" width="60" height="30" as="geometry" />
        </mxCell>
        <mxCell id="8zgzl7MIhLuuyy7sdj-F-15" value="Address" style="rounded=0;whiteSpace=wrap;html=1;" vertex="1" parent="1">
          <mxGeometry x="220" y="300" width="90" height="40" as="geometry" />
        </mxCell>
        <mxCell id="8zgzl7MIhLuuyy7sdj-F-16" value="&lt;u&gt;&lt;b&gt;Code&lt;/b&gt;&lt;/u&gt;" style="rounded=0;whiteSpace=wrap;html=1;" vertex="1" parent="1">
          <mxGeometry x="40" y="420" width="90" height="40" as="geometry" />
        </mxCell>
        <mxCell id="8zgzl7MIhLuuyy7sdj-F-17" value="Dosage" style="rounded=0;whiteSpace=wrap;html=1;" vertex="1" parent="1">
          <mxGeometry x="130" y="420" width="90" height="40" as="geometry" />
        </mxCell>
        <mxCell id="8zgzl7MIhLuuyy7sdj-F-18" value="&lt;b&gt;&lt;font style=&quot;font-size: 14px;&quot;&gt;Drug&lt;/font&gt;&lt;/b&gt;" style="text;html=1;align=center;verticalAlign=middle;resizable=0;points=[];autosize=1;strokeColor=none;fillColor=none;" vertex="1" parent="1">
          <mxGeometry x="40" y="390" width="60" height="30" as="geometry" />
        </mxCell>
        <mxCell id="8zgzl7MIhLuuyy7sdj-F-21" value="&lt;b&gt;&lt;font style=&quot;font-size: 14px;&quot;&gt;Drug - Brand&lt;/font&gt;&lt;/b&gt;" style="text;html=1;align=center;verticalAlign=middle;resizable=0;points=[];autosize=1;strokeColor=none;fillColor=none;" vertex="1" parent="1">
          <mxGeometry x="586" y="390" width="110" height="30" as="geometry" />
        </mxCell>
        <mxCell id="8zgzl7MIhLuuyy7sdj-F-22" value="" style="group" vertex="1" connectable="0" parent="1">
          <mxGeometry x="600" y="420" width="90" height="40" as="geometry" />
        </mxCell>
        <mxCell id="8zgzl7MIhLuuyy7sdj-F-23" value="&lt;span style=&quot;text-wrap: nowrap;&quot;&gt;&lt;font style=&quot;font-size: 12px;&quot;&gt;&lt;b&gt;Drug_code&lt;/b&gt;&lt;/font&gt;&lt;/span&gt;" style="rounded=0;whiteSpace=wrap;html=1;" vertex="1" parent="8zgzl7MIhLuuyy7sdj-F-22">
          <mxGeometry width="90" height="40" as="geometry" />
        </mxCell>
        <mxCell id="8zgzl7MIhLuuyy7sdj-F-24" value="" style="endArrow=none;dashed=1;html=1;dashPattern=1 3;strokeWidth=2;rounded=0;" edge="1" parent="8zgzl7MIhLuuyy7sdj-F-22">
          <mxGeometry width="50" height="50" relative="1" as="geometry">
            <mxPoint y="31" as="sourcePoint" />
            <mxPoint x="90" y="31" as="targetPoint" />
          </mxGeometry>
        </mxCell>
        <mxCell id="8zgzl7MIhLuuyy7sdj-F-28" value="" style="group" vertex="1" connectable="0" parent="1">
          <mxGeometry x="690" y="420" width="90" height="40" as="geometry" />
        </mxCell>
        <mxCell id="8zgzl7MIhLuuyy7sdj-F-29" value="&lt;span style=&quot;text-wrap: nowrap;&quot;&gt;&lt;font style=&quot;font-size: 12px;&quot;&gt;&lt;b&gt;Brand&lt;/b&gt;&lt;/font&gt;&lt;/span&gt;" style="rounded=0;whiteSpace=wrap;html=1;" vertex="1" parent="8zgzl7MIhLuuyy7sdj-F-28">
          <mxGeometry width="90" height="40" as="geometry" />
        </mxCell>
        <mxCell id="8zgzl7MIhLuuyy7sdj-F-30" value="" style="endArrow=none;dashed=1;html=1;dashPattern=1 3;strokeWidth=2;rounded=0;" edge="1" parent="8zgzl7MIhLuuyy7sdj-F-28">
          <mxGeometry width="50" height="50" relative="1" as="geometry">
            <mxPoint y="31" as="sourcePoint" />
            <mxPoint x="90" y="31" as="targetPoint" />
          </mxGeometry>
        </mxCell>
        <mxCell id="8zgzl7MIhLuuyy7sdj-F-31" value="" style="endArrow=none;html=1;rounded=0;" edge="1" parent="1">
          <mxGeometry width="50" height="50" relative="1" as="geometry">
            <mxPoint x="610" y="454" as="sourcePoint" />
            <mxPoint x="770" y="454" as="targetPoint" />
          </mxGeometry>
        </mxCell>
        <mxCell id="8zgzl7MIhLuuyy7sdj-F-32" style="edgeStyle=orthogonalEdgeStyle;rounded=0;orthogonalLoop=1;jettySize=auto;html=1;exitX=0;exitY=0.5;exitDx=0;exitDy=0;entryX=0;entryY=0.5;entryDx=0;entryDy=0;" edge="1" parent="1" source="8zgzl7MIhLuuyy7sdj-F-23" target="8zgzl7MIhLuuyy7sdj-F-16">
          <mxGeometry relative="1" as="geometry">
            <Array as="points">
              <mxPoint x="365" y="440" />
              <mxPoint x="365" y="380" />
              <mxPoint x="20" y="380" />
              <mxPoint x="20" y="440" />
            </Array>
          </mxGeometry>
        </mxCell>
        <mxCell id="8zgzl7MIhLuuyy7sdj-F-33" value="&lt;u&gt;&lt;b&gt;Id&lt;/b&gt;&lt;/u&gt;" style="rounded=0;whiteSpace=wrap;html=1;" vertex="1" parent="1">
          <mxGeometry x="40" y="540" width="90" height="40" as="geometry" />
        </mxCell>
        <mxCell id="8zgzl7MIhLuuyy7sdj-F-34" value="Name" style="rounded=0;whiteSpace=wrap;html=1;" vertex="1" parent="1">
          <mxGeometry x="130" y="540" width="90" height="40" as="geometry" />
        </mxCell>
        <mxCell id="8zgzl7MIhLuuyy7sdj-F-35" value="&lt;b&gt;&lt;font style=&quot;font-size: 14px;&quot;&gt;Ward&lt;/font&gt;&lt;/b&gt;" style="text;html=1;align=center;verticalAlign=middle;resizable=0;points=[];autosize=1;strokeColor=none;fillColor=none;" vertex="1" parent="1">
          <mxGeometry x="40" y="510" width="60" height="30" as="geometry" />
        </mxCell>
        <mxCell id="8zgzl7MIhLuuyy7sdj-F-36" value="" style="group" vertex="1" connectable="0" parent="1">
          <mxGeometry x="220" y="540" width="90" height="40" as="geometry" />
        </mxCell>
        <mxCell id="8zgzl7MIhLuuyy7sdj-F-37" value="&lt;span style=&quot;text-wrap: nowrap;&quot;&gt;&lt;font color=&quot;#00c400&quot; style=&quot;font-size: 12px;&quot;&gt;&lt;b&gt;Nurse_Id&lt;/b&gt;&lt;/font&gt;&lt;/span&gt;" style="rounded=0;whiteSpace=wrap;html=1;" vertex="1" parent="8zgzl7MIhLuuyy7sdj-F-36">
          <mxGeometry width="90" height="40" as="geometry" />
        </mxCell>
        <mxCell id="8zgzl7MIhLuuyy7sdj-F-38" value="" style="endArrow=none;dashed=1;html=1;dashPattern=1 3;strokeWidth=2;rounded=0;" edge="1" parent="8zgzl7MIhLuuyy7sdj-F-36">
          <mxGeometry width="50" height="50" relative="1" as="geometry">
            <mxPoint y="31" as="sourcePoint" />
            <mxPoint x="90" y="31" as="targetPoint" />
          </mxGeometry>
        </mxCell>
        <mxCell id="8zgzl7MIhLuuyy7sdj-F-39" style="edgeStyle=orthogonalEdgeStyle;rounded=0;orthogonalLoop=1;jettySize=auto;html=1;entryX=0;entryY=0.5;entryDx=0;entryDy=0;strokeColor=#00C400;" edge="1" parent="1" source="8zgzl7MIhLuuyy7sdj-F-37" target="8zgzl7MIhLuuyy7sdj-F-12">
          <mxGeometry relative="1" as="geometry">
            <Array as="points">
              <mxPoint x="265" y="500" />
              <mxPoint x="10" y="500" />
              <mxPoint x="10" y="320" />
            </Array>
          </mxGeometry>
        </mxCell>
        <mxCell id="8zgzl7MIhLuuyy7sdj-F-43" style="edgeStyle=orthogonalEdgeStyle;rounded=0;orthogonalLoop=1;jettySize=auto;html=1;entryX=0;entryY=0.5;entryDx=0;entryDy=0;strokeColor=#AD5700;" edge="1" parent="1" source="8zgzl7MIhLuuyy7sdj-F-41" target="8zgzl7MIhLuuyy7sdj-F-8">
          <mxGeometry relative="1" as="geometry">
            <Array as="points">
              <mxPoint x="355" y="140" />
              <mxPoint x="20" y="140" />
              <mxPoint x="20" y="200" />
            </Array>
          </mxGeometry>
        </mxCell>
        <mxCell id="8zgzl7MIhLuuyy7sdj-F-58" value="" style="group" vertex="1" connectable="0" parent="1">
          <mxGeometry x="310" y="300" width="90" height="40" as="geometry" />
        </mxCell>
        <mxCell id="8zgzl7MIhLuuyy7sdj-F-59" value="&lt;span style=&quot;text-wrap: nowrap;&quot;&gt;&lt;font color=&quot;#0000bd&quot; style=&quot;font-size: 12px;&quot;&gt;&lt;b style=&quot;&quot;&gt;Ward_Id&lt;/b&gt;&lt;/font&gt;&lt;/span&gt;" style="rounded=0;whiteSpace=wrap;html=1;" vertex="1" parent="8zgzl7MIhLuuyy7sdj-F-58">
          <mxGeometry width="90" height="40" as="geometry" />
        </mxCell>
        <mxCell id="8zgzl7MIhLuuyy7sdj-F-60" value="" style="endArrow=none;dashed=1;html=1;dashPattern=1 3;strokeWidth=2;rounded=0;" edge="1" parent="8zgzl7MIhLuuyy7sdj-F-58">
          <mxGeometry width="50" height="50" relative="1" as="geometry">
            <mxPoint y="31" as="sourcePoint" />
            <mxPoint x="90" y="31" as="targetPoint" />
          </mxGeometry>
        </mxCell>
        <mxCell id="8zgzl7MIhLuuyy7sdj-F-62" value="&lt;b&gt;&lt;font style=&quot;font-size: 14px;&quot;&gt;Patient&amp;nbsp;&lt;/font&gt;&lt;/b&gt;&lt;b&gt;&lt;font style=&quot;font-size: 14px;&quot;&gt;-&amp;nbsp;&lt;/font&gt;&lt;/b&gt;&lt;b&gt;&lt;font style=&quot;font-size: 14px;&quot;&gt;Consultant&lt;/font&gt;&lt;/b&gt;" style="text;html=1;align=center;verticalAlign=middle;resizable=0;points=[];autosize=1;strokeColor=none;fillColor=none;" vertex="1" parent="1">
          <mxGeometry x="590" y="120" width="160" height="30" as="geometry" />
        </mxCell>
        <mxCell id="8zgzl7MIhLuuyy7sdj-F-63" value="" style="group" vertex="1" connectable="0" parent="1">
          <mxGeometry x="604" y="150" width="90" height="40" as="geometry" />
        </mxCell>
        <mxCell id="8zgzl7MIhLuuyy7sdj-F-64" value="&lt;span style=&quot;text-wrap: nowrap;&quot;&gt;&lt;font color=&quot;#a680b8&quot; style=&quot;font-size: 12px;&quot;&gt;&lt;b&gt;Patient_Id&lt;/b&gt;&lt;/font&gt;&lt;/span&gt;" style="rounded=0;whiteSpace=wrap;html=1;" vertex="1" parent="8zgzl7MIhLuuyy7sdj-F-63">
          <mxGeometry width="90" height="40" as="geometry" />
        </mxCell>
        <mxCell id="8zgzl7MIhLuuyy7sdj-F-65" value="" style="endArrow=none;dashed=1;html=1;dashPattern=1 3;strokeWidth=2;rounded=0;" edge="1" parent="8zgzl7MIhLuuyy7sdj-F-63">
          <mxGeometry width="50" height="50" relative="1" as="geometry">
            <mxPoint y="31" as="sourcePoint" />
            <mxPoint x="90" y="31" as="targetPoint" />
          </mxGeometry>
        </mxCell>
        <mxCell id="8zgzl7MIhLuuyy7sdj-F-69" value="" style="endArrow=none;html=1;rounded=0;" edge="1" parent="1">
          <mxGeometry width="50" height="50" relative="1" as="geometry">
            <mxPoint x="614" y="184" as="sourcePoint" />
            <mxPoint x="774" y="184" as="targetPoint" />
          </mxGeometry>
        </mxCell>
        <mxCell id="8zgzl7MIhLuuyy7sdj-F-83" style="edgeStyle=orthogonalEdgeStyle;rounded=0;orthogonalLoop=1;jettySize=auto;html=1;exitX=0.5;exitY=1;exitDx=0;exitDy=0;entryX=0.5;entryY=1;entryDx=0;entryDy=0;strokeColor=#FF0080;" edge="1" parent="1" source="8zgzl7MIhLuuyy7sdj-F-81" target="8zgzl7MIhLuuyy7sdj-F-8">
          <mxGeometry relative="1" as="geometry" />
        </mxCell>
        <mxCell id="8zgzl7MIhLuuyy7sdj-F-84" style="edgeStyle=orthogonalEdgeStyle;rounded=0;orthogonalLoop=1;jettySize=auto;html=1;exitX=0;exitY=0.5;exitDx=0;exitDy=0;entryX=0;entryY=0.5;entryDx=0;entryDy=0;strokeColor=#A680B8;" edge="1" parent="1" source="8zgzl7MIhLuuyy7sdj-F-64" target="8zgzl7MIhLuuyy7sdj-F-2">
          <mxGeometry relative="1" as="geometry">
            <Array as="points">
              <mxPoint x="580" y="170" />
              <mxPoint x="580" y="20" />
              <mxPoint x="20" y="20" />
              <mxPoint x="20" y="90" />
            </Array>
          </mxGeometry>
        </mxCell>
        <mxCell id="8zgzl7MIhLuuyy7sdj-F-47" style="edgeStyle=orthogonalEdgeStyle;rounded=0;orthogonalLoop=1;jettySize=auto;html=1;exitX=1;exitY=0.5;exitDx=0;exitDy=0;entryX=0.5;entryY=1;entryDx=0;entryDy=0;strokeColor=#990000;" edge="1" parent="1" source="8zgzl7MIhLuuyy7sdj-F-45" target="8zgzl7MIhLuuyy7sdj-F-33">
          <mxGeometry relative="1" as="geometry" />
        </mxCell>
        <mxCell id="8zgzl7MIhLuuyy7sdj-F-61" style="edgeStyle=orthogonalEdgeStyle;rounded=0;orthogonalLoop=1;jettySize=auto;html=1;exitX=0.5;exitY=1;exitDx=0;exitDy=0;entryX=0.5;entryY=1;entryDx=0;entryDy=0;strokeColor=#0000BD;" edge="1" parent="1" source="8zgzl7MIhLuuyy7sdj-F-59" target="8zgzl7MIhLuuyy7sdj-F-33">
          <mxGeometry relative="1" as="geometry">
            <mxPoint x="340" y="370" as="sourcePoint" />
            <Array as="points">
              <mxPoint x="355" y="370" />
              <mxPoint x="500" y="370" />
              <mxPoint x="500" y="610" />
              <mxPoint x="85" y="610" />
            </Array>
          </mxGeometry>
        </mxCell>
        <mxCell id="8zgzl7MIhLuuyy7sdj-F-102" value="" style="group;fontStyle=0" vertex="1" connectable="0" parent="1">
          <mxGeometry x="136" y="710" width="556" height="70" as="geometry" />
        </mxCell>
        <mxCell id="8zgzl7MIhLuuyy7sdj-F-85" value="&lt;b&gt;&lt;font style=&quot;font-size: 14px;&quot;&gt;Patient&amp;nbsp;&lt;/font&gt;&lt;/b&gt;&lt;b&gt;&lt;font style=&quot;font-size: 14px;&quot;&gt;-&amp;nbsp;&lt;/font&gt;&lt;/b&gt;&lt;b&gt;&lt;font style=&quot;font-size: 14px;&quot;&gt;Nurse -&amp;nbsp;&lt;/font&gt;&lt;/b&gt;&lt;b&gt;&lt;font style=&quot;font-size: 14px;&quot;&gt;Drug&amp;nbsp;&lt;/font&gt;&lt;/b&gt;&lt;b&gt;&lt;font style=&quot;font-size: 14px;&quot;&gt;&amp;nbsp;&lt;/font&gt;&lt;/b&gt;" style="text;html=1;align=center;verticalAlign=middle;resizable=0;points=[];autosize=1;strokeColor=none;fillColor=none;fontStyle=0" vertex="1" parent="8zgzl7MIhLuuyy7sdj-F-102">
          <mxGeometry width="180" height="30" as="geometry" />
        </mxCell>
        <mxCell id="8zgzl7MIhLuuyy7sdj-F-86" value="" style="group;fontStyle=0" vertex="1" connectable="0" parent="8zgzl7MIhLuuyy7sdj-F-102">
          <mxGeometry x="104" y="30" width="90" height="40" as="geometry" />
        </mxCell>
        <mxCell id="8zgzl7MIhLuuyy7sdj-F-87" value="&lt;span style=&quot;text-wrap: nowrap;&quot;&gt;&lt;font color=&quot;#ff0000&quot; style=&quot;font-size: 12px;&quot;&gt;&lt;b&gt;Drug_code&lt;/b&gt;&lt;/font&gt;&lt;/span&gt;" style="rounded=0;whiteSpace=wrap;html=1;fontStyle=0" vertex="1" parent="8zgzl7MIhLuuyy7sdj-F-86">
          <mxGeometry width="90" height="40" as="geometry" />
        </mxCell>
        <mxCell id="8zgzl7MIhLuuyy7sdj-F-88" value="" style="endArrow=none;dashed=1;html=1;dashPattern=1 3;strokeWidth=2;rounded=0;fontStyle=0" edge="1" parent="8zgzl7MIhLuuyy7sdj-F-86">
          <mxGeometry width="50" height="50" relative="1" as="geometry">
            <mxPoint y="31" as="sourcePoint" />
            <mxPoint x="90" y="31" as="targetPoint" />
          </mxGeometry>
        </mxCell>
        <mxCell id="8zgzl7MIhLuuyy7sdj-F-93" value="" style="group;fontStyle=0" vertex="1" connectable="0" parent="8zgzl7MIhLuuyy7sdj-F-102">
          <mxGeometry x="15" y="30" width="90" height="40" as="geometry" />
        </mxCell>
        <mxCell id="8zgzl7MIhLuuyy7sdj-F-94" value="&lt;span style=&quot;text-wrap: nowrap;&quot;&gt;&lt;font color=&quot;#ff0000&quot; style=&quot;font-size: 12px;&quot;&gt;&lt;b style=&quot;&quot;&gt;Patient_Id&lt;/b&gt;&lt;/font&gt;&lt;/span&gt;" style="rounded=0;whiteSpace=wrap;html=1;fontStyle=0" vertex="1" parent="8zgzl7MIhLuuyy7sdj-F-93">
          <mxGeometry width="90" height="40" as="geometry" />
        </mxCell>
        <mxCell id="8zgzl7MIhLuuyy7sdj-F-95" value="" style="endArrow=none;dashed=1;html=1;dashPattern=1 3;strokeWidth=2;rounded=0;fontStyle=0" edge="1" parent="8zgzl7MIhLuuyy7sdj-F-93">
          <mxGeometry width="50" height="50" relative="1" as="geometry">
            <mxPoint y="31" as="sourcePoint" />
            <mxPoint x="90" y="31" as="targetPoint" />
          </mxGeometry>
        </mxCell>
        <mxCell id="8zgzl7MIhLuuyy7sdj-F-99" value="Dosage" style="rounded=0;whiteSpace=wrap;html=1;fontStyle=0" vertex="1" parent="8zgzl7MIhLuuyy7sdj-F-102">
          <mxGeometry x="464" y="30" width="90" height="40" as="geometry" />
        </mxCell>
        <mxCell id="8zgzl7MIhLuuyy7sdj-F-100" value="Time" style="rounded=0;whiteSpace=wrap;html=1;fontStyle=0" vertex="1" parent="8zgzl7MIhLuuyy7sdj-F-102">
          <mxGeometry x="284" y="30" width="90" height="40" as="geometry" />
        </mxCell>
        <mxCell id="8zgzl7MIhLuuyy7sdj-F-101" value="Date" style="rounded=0;whiteSpace=wrap;html=1;fontStyle=0" vertex="1" parent="8zgzl7MIhLuuyy7sdj-F-102">
          <mxGeometry x="194" y="30" width="90" height="40" as="geometry" />
        </mxCell>
        <mxCell id="8zgzl7MIhLuuyy7sdj-F-96" value="" style="group;fontStyle=0" vertex="1" connectable="0" parent="8zgzl7MIhLuuyy7sdj-F-102">
          <mxGeometry x="374" y="30" width="90" height="40" as="geometry" />
        </mxCell>
        <mxCell id="8zgzl7MIhLuuyy7sdj-F-97" value="&lt;span style=&quot;text-wrap: nowrap;&quot;&gt;&lt;font color=&quot;#ff0000&quot; style=&quot;font-size: 12px;&quot;&gt;&lt;b style=&quot;&quot;&gt;Nurse_Id&lt;/b&gt;&lt;/font&gt;&lt;/span&gt;" style="rounded=0;whiteSpace=wrap;html=1;fontStyle=0" vertex="1" parent="8zgzl7MIhLuuyy7sdj-F-96">
          <mxGeometry width="90" height="40" as="geometry" />
        </mxCell>
        <mxCell id="8zgzl7MIhLuuyy7sdj-F-98" value="" style="endArrow=none;dashed=1;html=1;dashPattern=1 3;strokeWidth=2;rounded=0;fontStyle=0" edge="1" parent="8zgzl7MIhLuuyy7sdj-F-96">
          <mxGeometry width="50" height="50" relative="1" as="geometry">
            <mxPoint y="31" as="sourcePoint" />
            <mxPoint x="90" y="31" as="targetPoint" />
          </mxGeometry>
        </mxCell>
        <mxCell id="8zgzl7MIhLuuyy7sdj-F-103" style="edgeStyle=orthogonalEdgeStyle;rounded=0;orthogonalLoop=1;jettySize=auto;html=1;exitX=0;exitY=0.5;exitDx=0;exitDy=0;entryX=0;entryY=0.5;entryDx=0;entryDy=0;strokeColor=#FF0000;" edge="1" parent="1" source="8zgzl7MIhLuuyy7sdj-F-94" target="8zgzl7MIhLuuyy7sdj-F-2">
          <mxGeometry relative="1" as="geometry">
            <Array as="points">
              <mxPoint x="-40" y="760" />
              <mxPoint x="-40" y="90" />
            </Array>
          </mxGeometry>
        </mxCell>
        <mxCell id="8zgzl7MIhLuuyy7sdj-F-104" style="edgeStyle=orthogonalEdgeStyle;rounded=0;orthogonalLoop=1;jettySize=auto;html=1;exitX=0.5;exitY=-0.15;exitDx=0;exitDy=0;entryX=0;entryY=0.5;entryDx=0;entryDy=0;strokeColor=#FF0000;exitPerimeter=0;" edge="1" parent="1" source="8zgzl7MIhLuuyy7sdj-F-97" target="8zgzl7MIhLuuyy7sdj-F-12">
          <mxGeometry relative="1" as="geometry">
            <Array as="points">
              <mxPoint x="555" y="690" />
              <mxPoint x="-10" y="690" />
              <mxPoint x="-10" y="320" />
            </Array>
          </mxGeometry>
        </mxCell>
        <mxCell id="8zgzl7MIhLuuyy7sdj-F-105" style="edgeStyle=orthogonalEdgeStyle;rounded=0;orthogonalLoop=1;jettySize=auto;html=1;exitX=0.5;exitY=0;exitDx=0;exitDy=0;entryX=0.5;entryY=1;entryDx=0;entryDy=0;strokeColor=#FF0000;" edge="1" parent="1" source="8zgzl7MIhLuuyy7sdj-F-87" target="8zgzl7MIhLuuyy7sdj-F-16">
          <mxGeometry relative="1" as="geometry">
            <Array as="points">
              <mxPoint x="285" y="660" />
              <mxPoint x="377" y="660" />
              <mxPoint x="377" y="480" />
              <mxPoint x="85" y="480" />
            </Array>
          </mxGeometry>
        </mxCell>
        <mxCell id="8zgzl7MIhLuuyy7sdj-F-106" value="" style="endArrow=none;html=1;rounded=0;" edge="1" parent="1">
          <mxGeometry width="50" height="50" relative="1" as="geometry">
            <mxPoint x="160" y="774" as="sourcePoint" />
            <mxPoint x="500" y="774" as="targetPoint" />
          </mxGeometry>
        </mxCell>
      </root>
    </mxGraphModel>
  </diagram>
</mxfile>
